<svg xmlns="http://www.w3.org/2000/svg" width="512" height="512" viewBox="0 0 512 512">
  <defs>
    <linearGradient id="grad" x1="0%" y1="0%" x2="100%" y2="100%">
      <stop offset="0%" style="stop-color:#3b82f6;stop-opacity:1" />
      <stop offset="100%" style="stop-color:#1d4ed8;stop-opacity:1" />
    </linearGradient>
  </defs>
  <rect width="512" height="512" rx="128" fill="url(#grad)"/>
  <path d="M256 120c-75 0-136 61-136 136s61 136 136 136 136-61 136-136-61-136-136-136zm0 240c-57.3 0-104-46.7-104-104s46.7-104 104-104 104 46.7 104 104-46.7 104-104 104z" fill="#fff"/>
  <circle cx="256" cy="256" r="48" fill="#fff"/>
  <path d="M320 176l-32 32 32 32" stroke="#fff" stroke-width="16" fill="none" stroke-linecap="round" stroke-linejoin="round"/>
  <path d="M192 336l32-32-32-32" stroke="#fff" stroke-width="16" fill="none" stroke-linecap="round" stroke-linejoin="round"/>
</svg>
